<svg width="30" height="30" viewBox="0 0 30 30" fill="none" xmlns="http://www.w3.org/2000/svg">
<g clip-path="url(#clip0_87_539)">
<path d="M15 30C23.2843 30 30 23.2843 30 15C30 6.71573 23.2843 0 15 0C6.71573 0 0 6.71573 0 15C0 23.2843 6.71573 30 15 30Z" fill="#B79C5F"/>
<path d="M15 6.80184C17.6701 6.80184 17.9864 6.81201 19.0408 6.86009C20.0158 6.90459 20.5453 7.06751 20.8977 7.20443C21.3645 7.38584 21.6976 7.60251 22.0475 7.95243C22.3975 8.30243 22.6142 8.63552 22.7956 9.10227C22.9325 9.45469 23.0954 9.98419 23.1399 10.9591C23.188 12.0136 23.1982 12.3299 23.1982 15C23.1982 17.6701 23.188 17.9864 23.1399 19.0409C23.0954 20.0159 22.9325 20.5453 22.7956 20.8977C22.6142 21.3645 22.3975 21.6977 22.0476 22.0476C21.6976 22.3975 21.3645 22.6142 20.8977 22.7956C20.5453 22.9326 20.0158 23.0954 19.0408 23.1399C17.9866 23.188 17.6703 23.1982 15 23.1982C12.3297 23.1982 12.0135 23.188 10.9592 23.1399C9.98417 23.0954 9.45467 22.9326 9.10225 22.7956C8.6355 22.6142 8.30242 22.3975 7.9525 22.0476C7.60258 21.6977 7.38583 21.3645 7.20442 20.8977C7.0675 20.5453 6.90458 20.0159 6.86008 19.0409C6.812 17.9864 6.80183 17.6701 6.80183 15C6.80183 12.3299 6.812 12.0136 6.86008 10.9591C6.90458 9.98419 7.0675 9.45469 7.20442 9.10227C7.38583 8.63552 7.6025 8.30243 7.9525 7.95251C8.30242 7.60251 8.6355 7.38584 9.10225 7.20443C9.45467 7.06751 9.98417 6.90459 10.9592 6.86009C12.0136 6.81201 12.3299 6.80184 15 6.80184ZM15 5C12.2842 5 11.9436 5.0115 10.877 5.06017C9.81267 5.10875 9.08567 5.27775 8.44958 5.525C7.792 5.7805 7.23433 6.12242 6.67842 6.67842C6.12242 7.23434 5.7805 7.79201 5.525 8.4496C5.27775 9.08568 5.10875 9.8126 5.06017 10.877C5.0115 11.9436 5 12.2842 5 15C5 17.7159 5.0115 18.0564 5.06017 19.123C5.10875 20.1874 5.27775 20.9143 5.525 21.5504C5.7805 22.208 6.12242 22.7657 6.67842 23.3217C7.23433 23.8776 7.792 24.2195 8.44958 24.475C9.08567 24.7222 9.81267 24.8912 10.877 24.9398C11.9436 24.9885 12.2842 25 15 25C17.7158 25 18.0564 24.9885 19.123 24.9398C20.1873 24.8912 20.9143 24.7222 21.5504 24.475C22.208 24.2195 22.7657 23.8776 23.3216 23.3217C23.8775 22.7657 24.2195 22.208 24.475 21.5504C24.7222 20.9143 24.8912 20.1874 24.9398 19.123C24.9885 18.0564 25 17.7159 25 15C25 12.2842 24.9885 11.9436 24.9398 10.877C24.8912 9.8126 24.7222 9.08568 24.475 8.4496C24.2195 7.79201 23.8775 7.23434 23.3216 6.67842C22.7657 6.12242 22.208 5.7805 21.5504 5.525C20.9143 5.27775 20.1873 5.10875 19.123 5.06017C18.0564 5.0115 17.7158 5 15 5Z" fill="#79000F"/>
<path d="M15 10C12.2385 10 10 12.2385 10 15C10 17.7615 12.2385 20 15 20C17.7614 20 20 17.7615 20 15C20 12.2385 17.7614 10 15 10ZM15 18.2456C13.2075 18.2456 11.7543 16.7925 11.7543 15C11.7543 13.2075 13.2075 11.7544 15 11.7544C16.7925 11.7544 18.2456 13.2075 18.2456 15C18.2456 16.7925 16.7925 18.2456 15 18.2456Z" fill="#79000F"/>
<path d="M22 9.50005C22 10.3284 21.3284 11 20.5 11C19.6716 11 19 10.3284 19 9.50005C19 8.67164 19.6716 8 20.5 8C21.3284 8 22 8.67164 22 9.50005Z" fill="#79000F"/>
</g>
<defs>
<clipPath id="clip0_87_539">
<rect width="30" height="30" fill="white"/>
</clipPath>
</defs>
</svg>
