<svg width="486" height="628" viewBox="0 0 486 628" fill="none" xmlns="http://www.w3.org/2000/svg">
<path fill-rule="evenodd" clip-rule="evenodd" d="M40.192 481.471C52.5513 481.471 63.995 484.797 72.9868 493.281C81.7905 501.586 85.5749 512.139 85.5749 523.999C85.5749 535.745 81.9732 546.384 73.1695 554.587C64.1326 563.009 52.4841 566.092 40.192 566.092H2.48495V481.471H40.192ZM113.032 497.015V513.331H145.119V528.875H113.032V550.55H169.333V566.092H96.3451V481.471H166.064V497.015H113.032ZM265.297 568.12C252.893 568.12 241.945 564.225 233.191 555.583C224.398 546.901 220.51 536.09 220.51 523.951C220.51 511.782 224.407 500.95 233.246 492.266C242.008 483.657 252.903 479.734 265.297 479.734C277.747 479.734 288.686 483.67 297.495 492.312C306.337 500.985 310.284 511.779 310.284 523.951C310.284 536.114 306.357 546.92 297.519 555.59C288.719 564.223 277.729 568.12 265.297 568.12ZM378.246 534.305V481.471H394.933V566.092H384.958L337.741 513.24V566.092H321.054V481.471H331.18L378.246 534.305ZM428.779 497.015V513.331H460.866V528.875H428.779V550.55H485.079V566.092H412.091V481.471H481.811V497.015H428.779ZM19.1722 497.015V550.55H40.192C47.9128 550.55 55.4588 548.789 61.1107 543.399C66.6383 538.13 68.5905 531.26 68.5905 523.854C68.5905 516.391 66.4842 509.648 60.9566 504.352C55.2925 498.926 47.9701 497.015 40.192 497.015H19.1722ZM265.322 552.432C273.137 552.432 279.814 549.972 285.253 544.46C290.861 538.776 293.151 531.778 293.151 523.951C293.151 516.118 290.863 509.091 285.269 503.386C279.84 497.847 273.118 495.422 265.322 495.422C257.498 495.422 250.827 497.91 245.396 503.437C239.801 509.132 237.493 516.119 237.493 523.951C237.493 531.778 239.784 538.776 245.392 544.46C250.83 549.972 257.507 552.432 265.322 552.432Z" fill="#FEFEFE"/>
<path d="M29.3381 604.636L26.4065 606.413C23.8623 603.142 20.3892 601.506 15.9863 601.506C12.4681 601.506 9.54534 602.606 7.21788 604.795C4.89921 606.985 3.735 609.641 3.735 612.771C3.735 614.812 4.26757 616.729 5.34162 618.524C6.40576 620.317 7.87597 621.716 9.74344 622.71C11.6021 623.704 13.6951 624.197 16.0138 624.197C20.2538 624.197 23.7181 622.561 26.4065 619.289L29.3381 621.17C27.9582 623.185 26.1084 624.742 23.7908 625.858C21.4622 626.967 18.8189 627.52 15.851 627.52C11.2863 627.52 7.50623 626.114 4.50198 623.308C1.49774 620.493 0 617.081 0 613.054C0 610.353 0.704339 607.838 2.11182 605.516C3.5094 603.195 5.44068 601.383 7.8947 600.081C10.3575 598.779 13.0998 598.129 16.1404 598.129C18.053 598.129 19.8929 598.41 21.6702 598.973C23.4386 599.535 24.9452 600.274 26.181 601.18C27.4256 602.086 28.4721 603.239 29.3381 604.636ZM65.0458 598.129C69.4762 598.129 73.1561 599.685 76.0701 602.807C78.7233 605.648 80.0494 609.017 80.0494 612.903C80.0494 616.808 78.6507 620.221 75.8445 623.141C73.0483 626.061 69.4399 627.52 65.0458 627.52C60.6252 627.52 57.008 626.061 54.2118 623.141C51.4056 620.221 50.0069 616.808 50.0069 612.903C50.0069 609.034 51.3341 605.675 53.9862 602.834C56.9002 599.694 60.59 598.129 65.0458 598.129ZM65.0282 601.664C61.9524 601.664 59.3179 602.763 57.1071 604.971C54.8974 607.178 53.7969 609.852 53.7969 612.983C53.7969 614.996 54.302 616.879 55.3034 618.629C56.3136 620.37 57.676 621.716 59.3894 622.666C61.0951 623.616 62.9802 624.09 65.0282 624.09C67.0761 624.09 68.9612 623.616 70.6669 622.666C72.3803 621.716 73.7427 620.37 74.754 618.629C75.7543 616.879 76.2605 614.996 76.2605 612.983C76.2605 609.852 75.1502 607.178 72.9317 604.971C70.7209 602.763 68.0863 601.664 65.0282 601.664ZM101.845 598.814H105.526V603.836C107.015 601.919 108.657 600.486 110.452 599.545C112.256 598.603 114.214 598.129 116.334 598.129C118.49 598.129 120.403 598.657 122.071 599.721C123.741 600.785 124.977 602.218 125.77 604.021C126.565 605.815 126.962 608.621 126.962 612.429V626.835H123.281V613.484C123.281 610.265 123.137 608.11 122.856 607.029C122.406 605.183 121.575 603.792 120.358 602.851C119.14 601.919 117.552 601.454 115.594 601.454C113.348 601.454 111.336 602.174 109.568 603.616C107.791 605.05 106.618 606.836 106.059 608.964C105.706 610.353 105.526 612.886 105.526 616.571V626.835H101.845V598.814ZM164.347 601.858L161.964 604.25C159.989 602.386 158.049 601.454 156.164 601.454C154.964 601.454 153.935 601.84 153.078 602.614C152.222 603.379 151.788 604.285 151.788 605.313C151.788 606.22 152.14 607.09 152.843 607.908C153.548 608.753 155.036 609.738 157.292 610.873C160.034 612.253 161.901 613.599 162.894 614.883C163.859 616.184 164.347 617.653 164.347 619.28C164.347 621.584 163.516 623.528 161.856 625.129C160.197 626.72 158.121 627.52 155.631 627.52C153.971 627.52 152.392 627.169 150.877 626.466C149.37 625.762 148.126 624.794 147.133 623.554L149.461 620.977C151.346 623.053 153.358 624.09 155.478 624.09C156.958 624.09 158.22 623.625 159.267 622.701C160.305 621.777 160.827 620.688 160.827 619.438C160.827 618.409 160.485 617.495 159.799 616.686C159.105 615.894 157.553 614.9 155.136 613.704C152.536 612.402 150.769 611.118 149.839 609.852C148.902 608.585 148.432 607.144 148.432 605.516C148.432 603.396 149.181 601.638 150.67 600.23C152.167 598.833 154.053 598.129 156.335 598.129C158.987 598.129 161.658 599.369 164.347 601.858ZM189.029 588.367H192.71V598.814H198.555V601.928H192.71V626.835H189.029V601.928H183.995V598.814H189.029V588.367ZM217.754 598.814H221.544V602.912C222.671 601.295 223.861 600.099 225.116 599.307C226.369 598.525 227.678 598.129 229.031 598.129C230.059 598.129 231.151 598.445 232.315 599.078L230.385 602.104C229.609 601.779 228.959 601.611 228.427 601.611C227.191 601.611 226 602.104 224.854 603.088C223.708 604.074 222.834 605.613 222.229 607.688C221.769 609.281 221.544 612.508 221.544 617.363V626.835H217.754V598.814ZM249.943 598.814H253.623V611.893C253.623 615.084 253.804 617.275 254.156 618.48C254.68 620.195 255.699 621.549 257.188 622.542C258.675 623.537 260.461 624.038 262.528 624.038C264.594 624.038 266.345 623.554 267.787 622.586C269.222 621.61 270.224 620.344 270.765 618.761C271.135 617.679 271.324 615.392 271.324 611.893V598.814H275.113V612.551C275.113 616.412 274.653 619.315 273.724 621.268C272.803 623.229 271.406 624.759 269.547 625.858C267.688 626.967 265.361 627.52 262.555 627.52C259.75 627.52 257.413 626.967 255.536 625.858C253.66 624.759 252.252 623.211 251.332 621.232C250.403 619.253 249.943 616.272 249.943 612.297V598.814ZM326.247 604.636L323.315 606.413C320.771 603.142 317.298 601.506 312.895 601.506C309.377 601.506 306.454 602.606 304.126 604.795C301.808 606.985 300.644 609.641 300.644 612.771C300.644 614.812 301.176 616.729 302.25 618.524C303.314 620.317 304.785 621.716 306.652 622.71C308.511 623.704 310.604 624.197 312.922 624.197C317.163 624.197 320.627 622.561 323.315 619.289L326.247 621.17C324.867 623.185 323.017 624.742 320.699 625.858C318.371 626.967 315.728 627.52 312.76 627.52C308.195 627.52 304.415 626.114 301.411 623.308C298.406 620.493 296.909 617.081 296.909 613.054C296.909 610.353 297.613 607.838 299.02 605.516C300.418 603.195 302.349 601.383 304.803 600.081C307.266 598.779 310.008 598.129 313.049 598.129C314.962 598.129 316.802 598.41 318.579 598.973C320.347 599.535 321.854 600.274 323.09 601.18C324.334 602.086 325.381 603.239 326.247 604.636ZM351.517 588.367H355.198V598.814H361.043V601.928H355.198V626.835H351.517V601.928H346.483V598.814H351.517V588.367ZM382.94 587.311C383.779 587.311 384.492 587.602 385.087 588.191C385.682 588.771 385.98 589.483 385.98 590.302C385.98 591.111 385.682 591.814 385.087 592.395C384.492 592.984 383.779 593.273 382.94 593.273C382.109 593.273 381.406 592.984 380.811 592.395C380.215 591.814 379.917 591.111 379.917 590.302C379.917 589.483 380.215 588.771 380.811 588.191C381.406 587.602 382.109 587.311 382.94 587.311ZM381.108 598.814H384.789V626.835H381.108V598.814ZM421.101 598.129C425.531 598.129 429.211 599.685 432.125 602.807C434.778 605.648 436.104 609.017 436.104 612.903C436.104 616.808 434.706 620.221 431.899 623.141C429.103 626.061 425.495 627.52 421.101 627.52C416.68 627.52 413.063 626.061 410.267 623.141C407.461 620.221 406.062 616.808 406.062 612.903C406.062 609.034 407.389 605.675 410.041 602.834C412.955 599.694 416.645 598.129 421.101 598.129ZM421.083 601.664C418.007 601.664 415.373 602.763 413.162 604.971C410.952 607.178 409.852 609.852 409.852 612.983C409.852 614.996 410.357 616.879 411.358 618.629C412.369 620.37 413.731 621.716 415.444 622.666C417.15 623.616 419.035 624.09 421.083 624.09C423.131 624.09 425.016 623.616 426.722 622.666C428.435 621.716 429.798 620.37 430.809 618.629C431.809 616.879 432.315 614.996 432.315 612.983C432.315 609.852 431.205 607.178 428.986 604.971C426.776 602.763 424.141 601.664 421.083 601.664ZM457.9 598.814H461.581V603.836C463.07 601.919 464.712 600.486 466.507 599.545C468.311 598.603 470.269 598.129 472.388 598.129C474.545 598.129 476.458 598.657 478.126 599.721C479.796 600.785 481.031 602.218 481.825 604.021C482.619 605.815 483.017 608.621 483.017 612.429V626.835H479.336V613.484C479.336 610.265 479.192 608.11 478.911 607.029C478.461 605.183 477.63 603.792 476.413 602.851C475.195 601.919 473.607 601.454 471.649 601.454C469.403 601.454 467.391 602.174 465.623 603.616C463.846 605.05 462.673 606.836 462.114 608.964C461.761 610.353 461.581 612.886 461.581 616.571V626.835H457.9V598.814Z" fill="#E8E8E6"/>
<path fill-rule="evenodd" clip-rule="evenodd" d="M100.008 117.258L99.4582 176.559L3.10002 235.475L2.01611 464.225L97.0592 464.576L99.3471 177.156C115.397 182.635 180.146 229.201 194.59 233.846L193.72 464.762L289.356 464.768C291.737 350.712 290.417 115.73 291.044 0C281.092 3.07891 254.964 21.0578 243.762 27.8217C227.572 37.6002 211.479 47.8464 195.445 57.5176L100.008 117.258Z" fill="#FEFEFE"/>
<path fill-rule="evenodd" clip-rule="evenodd" d="M385.052 464.699L480.973 464.602L482.495 235.779C469.515 225.048 450.022 215.048 435.014 205.503C422.67 197.651 399.341 181.649 386.682 176.537L385.052 464.699Z" fill="#FEFEFE"/>
</svg>
