<svg width="30" height="30" viewBox="0 0 30 30" fill="none" xmlns="http://www.w3.org/2000/svg">
<g clip-path="url(#clip0_87_546)">
<path d="M15 30C23.2843 30 30 23.2843 30 15C30 6.71573 23.2843 0 15 0C6.71573 0 0 6.71573 0 15C0 23.2843 6.71573 30 15 30Z" fill="#B79C5F"/>
<path d="M15.9286 5.01667C16.9965 5 18.0567 5.00867 19.1162 5C19.1514 6.35463 19.689 7.57387 20.5443 8.47696L20.543 8.47562C21.4635 9.32335 22.6613 9.87294 23.9817 9.96632L24 9.96765V13.3266C22.7526 13.2945 21.5796 13.0004 20.5221 12.4948L20.5756 12.5175C20.0641 12.2661 19.6316 12.0079 19.2205 11.7198L19.2545 11.7425C19.2466 14.1763 19.2623 16.6101 19.2382 19.0352C19.171 20.2711 18.7691 21.3983 18.1245 22.3394L18.1376 22.3187C17.0598 23.8968 15.314 24.9326 13.3288 24.994H13.3196C13.2394 24.998 13.1448 25 13.0495 25C11.9209 25 10.866 24.6785 9.96696 24.1203L9.99306 24.1356C8.35685 23.1291 7.2282 21.407 7.01944 19.4041L7.01683 19.3767C7.00052 18.9598 6.99269 18.543 7.009 18.1348C7.32867 14.9473 9.94087 12.4815 13.1161 12.4815C13.4729 12.4815 13.8226 12.5128 14.1625 12.5722L14.126 12.5669C14.1423 13.8001 14.0934 15.034 14.0934 16.2673C13.8174 16.1652 13.499 16.1059 13.167 16.1059C11.9483 16.1059 10.9116 16.9022 10.528 18.0141L10.5222 18.0341C10.4354 18.3189 10.3851 18.6464 10.3851 18.9852C10.3851 19.1226 10.3936 19.2587 10.4093 19.3921L10.408 19.376C10.6246 20.7407 11.7689 21.7705 13.1487 21.7705C13.1885 21.7705 13.2276 21.7698 13.2668 21.7678H13.2609C14.2154 21.7385 15.0439 21.2136 15.5123 20.4379L15.5189 20.4259C15.693 20.1778 15.8124 19.8776 15.8522 19.5515L15.8529 19.5421C15.9344 18.0501 15.9018 16.5667 15.9096 15.0747C15.9175 11.7158 15.9018 8.3649 15.9259 5.01467L15.9286 5.01667Z" fill="#79000F"/>
</g>
<defs>
<clipPath id="clip0_87_546">
<rect width="30" height="30" fill="white"/>
</clipPath>
</defs>
</svg>
