<svg width="30" height="30" viewBox="0 0 30 30" fill="none" xmlns="http://www.w3.org/2000/svg">
<g clip-path="url(#clip0_87_537)">
<path d="M15 0C6.74999 0 0 6.76204 0 15.0904C0 22.6205 5.48999 28.8705 12.66 30V19.4578H8.84999V15.0904H12.66V11.762C12.66 7.98192 14.895 5.90361 18.33 5.90361C19.965 5.90361 21.675 6.18975 21.675 6.18975V9.90963H19.785C17.925 9.90963 17.34 11.0693 17.34 12.2591V15.0904H21.51L20.835 19.4578H17.34V30C20.8746 29.4395 24.0933 27.6288 26.4148 24.8946C28.7364 22.1606 30.0081 18.6831 30 15.0904C30 6.76204 23.25 0 15 0Z" fill="#B79C5F"/>
</g>
<defs>
<clipPath id="clip0_87_537">
<rect width="30" height="30" fill="white"/>
</clipPath>
</defs>
</svg>
