<svg width="20" height="21" viewBox="0 0 20 21" fill="none" xmlns="http://www.w3.org/2000/svg">
<path d="M12.585 14.7125L14.0627 13.1996C14.2901 12.9641 14.5609 12.7769 14.8593 12.6493C15.1579 12.5217 15.4781 12.456 15.8015 12.456C16.125 12.456 16.4452 12.5217 16.7438 12.6493C17.0422 12.7769 17.313 12.9641 17.5403 13.1996L19.2736 14.974C19.5037 15.2068 19.6865 15.4837 19.8111 15.7893C19.9358 16.0948 20 16.4228 20 16.7539C20 17.0851 19.9358 17.413 19.8111 17.7186C19.6865 18.0241 19.5037 18.3011 19.2736 18.5338L18.4847 19.3527C17.9412 19.9145 17.2382 20.2865 16.476 20.4151C15.7138 20.5437 14.9314 20.4228 14.2404 20.0693C8.29434 16.936 3.45117 11.9821 0.385453 5.89786C0.0398328 5.18976 -0.0775184 4.3877 0.0502545 3.60703C0.178027 2.82634 0.544347 2.10716 1.09656 1.55305L1.88537 0.734181C2.3475 0.263971 2.97262 0 3.6242 0C4.27577 0 4.90089 0.263971 5.36302 0.734181L7.10741 2.51991C7.56674 2.99299 7.82458 3.63282 7.82458 4.29983C7.82458 4.96683 7.56674 5.60666 7.10741 6.07974L5.62966 7.59253C6.60675 8.94544 7.68 10.2226 8.84065 11.4139C9.99461 12.5972 11.2352 13.6886 12.5516 14.6783L12.585 14.7125Z" fill="white"/>
</svg>
