<svg width="30" height="30" viewBox="0 0 30 30" fill="none" xmlns="http://www.w3.org/2000/svg">
<g clip-path="url(#clip0_87_544)">
<path d="M15 0C6.71484 0 0 6.71484 0 15C0 23.2852 6.71484 30 15 30C23.2852 30 30 23.2852 30 15C30 6.71484 23.2852 0 15 0ZM20.9883 12.668C20.9941 12.7969 20.9941 12.9316 20.9941 13.0664C20.9941 17.1387 17.8945 21.8379 12.2227 21.8379C10.4824 21.8379 8.85938 21.3281 7.5 20.4551C7.74023 20.4844 7.98633 20.4961 8.23828 20.4961C9.67969 20.4961 11.0098 20.0039 12.0645 19.1777C10.7168 19.1543 9.57422 18.2637 9.1875 17.0391C9.375 17.0742 9.56836 17.0918 9.76758 17.0918C10.0488 17.0918 10.3242 17.0566 10.582 16.9805C9.16992 16.6992 8.10937 15.4512 8.10937 13.957V13.9219C8.52539 14.1504 9 14.291 9.50391 14.3086C8.67773 13.7578 8.13281 12.8086 8.13281 11.7422C8.13281 11.1797 8.28516 10.6465 8.54883 10.1895C10.0723 12.0586 12.3398 13.2832 14.9004 13.4121C14.8477 13.1895 14.8184 12.9551 14.8184 12.709C14.8184 11.0098 16.2012 9.62695 17.9004 9.62695C18.7852 9.62695 19.5879 10.002 20.1504 10.5996C20.8535 10.459 21.5098 10.207 22.1074 9.84961C21.8789 10.5703 21.3867 11.1738 20.7539 11.5547C21.375 11.4785 21.9727 11.3145 22.5234 11.0684C22.1133 11.6895 21.5918 12.2285 20.9883 12.668Z" fill="#B79C5F"/>
</g>
<defs>
<clipPath id="clip0_87_544">
<rect width="30" height="30" fill="white"/>
</clipPath>
</defs>
</svg>
